<svg width="24" height="26" viewBox="0 0 24 26" fill="none" xmlns="http://www.w3.org/2000/svg">
<path d="M12.0009 16.4999C13.9339 16.4999 15.5009 14.9329 15.5009 12.9999C15.5009 11.0669 13.9339 9.49992 12.0009 9.49992C10.0679 9.49992 8.50089 11.0669 8.50089 12.9999C8.50089 14.9329 10.0679 16.4999 12.0009 16.4999Z" stroke="#738C96" stroke-width="2.3" stroke-linecap="round" stroke-linejoin="round"/>
<path d="M8.83816 21.5995L9.52001 23.1331C9.72271 23.5896 10.0535 23.9774 10.4723 24.2496C10.891 24.5218 11.3798 24.6667 11.8793 24.6666C12.3787 24.6667 12.8675 24.5218 13.2863 24.2496C13.705 23.9774 14.0358 23.5896 14.2385 23.1331L14.9204 21.5995C15.1631 21.0554 15.5714 20.6018 16.087 20.3033C16.606 20.0039 17.2063 19.8764 17.802 19.939L19.4704 20.1166C19.967 20.1691 20.4682 20.0764 20.9132 19.8498C21.3582 19.6232 21.7279 19.2723 21.9774 18.8397C22.2273 18.4074 22.3463 17.9119 22.3201 17.4133C22.2939 16.9147 22.1235 16.4344 21.8296 16.0307L20.8419 14.6734C20.4901 14.1866 20.3022 13.6005 20.3052 12.9999C20.3051 12.4009 20.4948 11.8173 20.847 11.3329L21.8348 9.97566C22.1287 9.57197 22.2991 9.09167 22.3253 8.59304C22.3515 8.09441 22.2325 7.59888 21.9826 7.16659C21.733 6.73403 21.3634 6.38316 20.9184 6.15652C20.4734 5.92988 19.9722 5.8372 19.4756 5.88973L17.8072 6.06733C17.2115 6.1299 16.6111 6.00239 16.0922 5.70307C15.5755 5.40288 15.1672 4.94684 14.9256 4.40029L14.2385 2.86677C14.0358 2.41028 13.705 2.02242 13.2863 1.75022C12.8675 1.47801 12.3787 1.33317 11.8793 1.33325C11.3798 1.33317 10.891 1.47801 10.4723 1.75022C10.0535 2.02242 9.72271 2.41028 9.52001 2.86677L8.83816 4.40029C8.59658 4.94684 8.18818 5.40288 7.67149 5.70307C7.15258 6.00239 6.55228 6.1299 5.95649 6.06733L4.28298 5.88973C3.78636 5.8372 3.28517 5.92988 2.84018 6.15652C2.39518 6.38316 2.02549 6.73403 1.77594 7.16659C1.52606 7.59888 1.40702 8.09441 1.43325 8.59304C1.45948 9.09167 1.62986 9.57197 1.92372 9.97566L2.91149 11.3329C3.26376 11.8173 3.45346 12.4009 3.45335 12.9999C3.45346 13.5989 3.26376 14.1825 2.91149 14.667L1.92372 16.0242C1.62986 16.4279 1.45948 16.9082 1.43325 17.4068C1.40702 17.9054 1.52606 18.401 1.77594 18.8333C2.02574 19.2656 2.39547 19.6163 2.8404 19.8429C3.28533 20.0695 3.7864 20.1623 4.28298 20.1101L5.95131 19.9325C6.54709 19.8699 7.14739 19.9974 7.66631 20.2968C8.18493 20.5961 8.59522 21.0522 8.83816 21.5995Z" stroke="#738C96" stroke-width="2.3" stroke-linecap="round" stroke-linejoin="round"/>
</svg>
