<svg width="20" height="20" viewBox="0 0 20 20" fill="none" xmlns="http://www.w3.org/2000/svg">
<path d="M10 10C12.7614 10 15 7.76142 15 5C15 2.23858 12.7614 0 10 0C7.23858 0 5 2.23858 5 5C5 7.76142 7.23858 10 10 10Z" fill="#7591FF"/>
<path d="M10 10H10.9091C15.9299 10 20 14.0701 20 19.0909C20 19.593 19.593 20 19.0909 20H0.90909C0.40701 20 0 19.593 0 19.0909C0 14.0701 4.07014 10 9.0909 10H10Z" fill="#7591FF"/>
<path fill-rule="evenodd" clip-rule="evenodd" d="M10 9C12.2091 9 14 7.20914 14 5C14 2.79086 12.2091 1 10 1C7.79086 1 6 2.79086 6 5C6 7.20914 7.79086 9 10 9ZM12.7606 9.1695C14.1102 8.2741 15 6.74097 15 5C15 2.23858 12.7614 0 10 0C7.23858 0 5 2.23858 5 5C5 6.74097 5.88979 8.2741 7.23942 9.1695C7.78982 9.5346 8.4167 9.7937 9.0909 9.9176C9.3857 9.9717 9.6895 10 10 10H9.0909C8.391 10 7.70963 10.0791 7.05514 10.2288C3.0145 11.1532 0 14.77 0 19.0909C0 19.593 0.40701 20 0.90909 20H19.0909C19.593 20 20 19.593 20 19.0909C20 14.77 16.9855 11.1532 12.9449 10.2288C12.2904 10.0791 11.609 10 10.9091 10H10C10.3105 10 10.6143 9.9717 10.9091 9.9176C11.5833 9.7937 12.2102 9.5346 12.7606 9.1695ZM10.9091 11H9.0909C4.65277 11 1.04923 14.5734 1.0005 19H18.9995C18.9508 14.5734 15.3472 11 10.9091 11Z" fill="#7591FF"/>
</svg>
