<svg width="22" height="22" viewBox="0 0 22 22" fill="none" xmlns="http://www.w3.org/2000/svg">
<path d="M5 0C3.6744 0.00158786 2.40316 0.528483 1.46582 1.46582C0.528482 2.40316 0.00158691 3.67441 0 5V13C0.00158691 14.3256 0.528482 15.5968 1.46582 16.5342C2.40316 17.4715 3.6744 17.9984 5 18H10.7002L16.4453 21.832C16.5958 21.9324 16.7705 21.9902 16.9512 21.999C17.132 22.0078 17.3121 21.9672 17.4717 21.8818C17.6313 21.7964 17.7644 21.669 17.8574 21.5137C17.9504 21.3584 18 21.181 18 21V17.9004C19.1286 17.6683 20.1425 17.0537 20.8711 16.1611C21.5997 15.2686 21.9985 14.1522 22 13V5C21.9984 3.67441 21.4715 2.40316 20.5342 1.46582C19.5968 0.528482 18.3256 0.00158786 17 0H5ZM11 4.25C11.3501 4.25 11.6538 4.49258 11.7314 4.83398L12.1465 6.6582C12.3384 7.50229 12.9977 8.16159 13.8418 8.35352L15.666 8.76855C16.0074 8.84618 16.25 9.14986 16.25 9.5C16.25 9.85014 16.0074 10.1538 15.666 10.2314L13.8418 10.6465C12.9977 10.8384 12.3384 11.4977 12.1465 12.3418L11.7314 14.166C11.6538 14.5074 11.3501 14.75 11 14.75C10.6499 14.75 10.3462 14.5074 10.2686 14.166L9.85352 12.3418C9.66159 11.4977 9.00229 10.8384 8.1582 10.6465L6.33398 10.2314C5.99258 10.1538 5.75 9.85014 5.75 9.5C5.75 9.14986 5.99258 8.84618 6.33398 8.76855L8.1582 8.35352C9.00229 8.16159 9.66159 7.50229 9.85352 6.6582L10.2686 4.83398C10.3462 4.49258 10.6499 4.25 11 4.25Z" fill="#7591FF"/>
</svg>
