<svg width="25" height="27" viewBox="0 0 25 27" fill="none" xmlns="http://www.w3.org/2000/svg">
<path d="M12.5712 17.1667C14.5042 17.1667 16.0712 15.5997 16.0712 13.6667C16.0712 11.7337 14.5042 10.1667 12.5712 10.1667C10.6382 10.1667 9.07121 11.7337 9.07121 13.6667C9.07121 15.5997 10.6382 17.1667 12.5712 17.1667Z" stroke="#7591FF" stroke-width="2.3" stroke-linecap="round" stroke-linejoin="round"/>
<path d="M9.40847 22.2663L10.0903 23.7998C10.293 24.2563 10.6238 24.6442 11.0426 24.9164C11.4614 25.1886 11.9501 25.3334 12.4496 25.3333C12.9491 25.3334 13.4378 25.1886 13.8566 24.9164C14.2754 24.6442 14.6061 24.2563 14.8088 23.7998L15.4907 22.2663C15.7334 21.7222 16.1417 21.2685 16.6574 20.97C17.1763 20.6707 17.7766 20.5432 18.3724 20.6057L20.0407 20.7833C20.5373 20.8359 21.0385 20.7432 21.4835 20.5166C21.9285 20.2899 22.2982 19.939 22.5477 19.5065C22.7976 19.0742 22.9167 18.5787 22.8904 18.08C22.8642 17.5814 22.6938 17.1011 22.4 16.6974L21.4122 15.3402C21.0605 14.8533 20.8725 14.2673 20.8755 13.6667C20.8754 13.0677 21.0651 12.4841 21.4174 11.9996L22.4051 10.6424C22.699 10.2387 22.8694 9.75842 22.8956 9.25979C22.9218 8.76116 22.8028 8.26563 22.5529 7.83333C22.3034 7.40077 21.9337 7.0499 21.4887 6.82327C21.0437 6.59663 20.5425 6.50395 20.0459 6.55648L18.3775 6.73407C17.7818 6.79664 17.1815 6.66914 16.6625 6.36982C16.1459 6.06963 15.7375 5.61358 15.4959 5.06704L14.8088 3.53352C14.6061 3.07703 14.2754 2.68917 13.8566 2.41697C13.4378 2.14476 12.9491 1.99992 12.4496 2C11.9501 1.99992 11.4614 2.14476 11.0426 2.41697C10.6238 2.68917 10.293 3.07703 10.0903 3.53352L9.40847 5.06704C9.16689 5.61358 8.75849 6.06963 8.24181 6.36982C7.72289 6.66914 7.12259 6.79664 6.52681 6.73407L4.85329 6.55648C4.35667 6.50395 3.85548 6.59663 3.41049 6.82327C2.96549 7.0499 2.59581 7.40077 2.34625 7.83333C2.09638 8.26563 1.97733 8.76116 2.00356 9.25979C2.02979 9.75842 2.20017 10.2387 2.49403 10.6424L3.48181 11.9996C3.83407 12.4841 4.02377 13.0677 4.02366 13.6667C4.02377 14.2656 3.83407 14.8493 3.48181 15.3337L2.49403 16.6909C2.20017 17.0946 2.02979 17.5749 2.00356 18.0735C1.97733 18.5722 2.09638 19.0677 2.34625 19.5C2.59605 19.9323 2.96578 20.283 3.41072 20.5096C3.85565 20.7362 4.35671 20.8291 4.85329 20.7769L6.52162 20.5993C7.1174 20.5367 7.71771 20.6642 8.23662 20.9635C8.75524 21.2629 9.16553 21.719 9.40847 22.2663Z" stroke="#7591FF" stroke-width="2.3" stroke-linecap="round" stroke-linejoin="round"/>
</svg>
