<svg width="86" height="80" viewBox="0 0 86 80" fill="none" xmlns="http://www.w3.org/2000/svg">
<path d="M68.8756 64.8986L47.1162 43.3975L42.8075 47.7579L64.5669 69.2591L68.8756 64.8986Z" fill="#777991"/>
<path d="M77.1874 70.6754L60.2586 53.9474C60.1643 53.8543 60.0124 53.8552 59.9193 53.9495L53.5118 60.4339C53.4187 60.5281 53.4196 60.68 53.5138 60.7732L70.4427 77.5012C70.537 77.5943 70.6889 77.5934 70.782 77.4991L77.1895 71.0147C77.2826 70.9205 77.2817 70.7686 77.1874 70.6754Z" fill="#777991"/>
<path d="M27.8308 54.2104C42.8006 54.2104 54.936 42.075 54.936 27.1052C54.936 12.1354 42.8006 0 27.8308 0C12.861 0 0.725586 12.1354 0.725586 27.1052C0.725586 42.075 12.861 54.2104 27.8308 54.2104Z" fill="#777991"/>
<path d="M27.8309 49.7878C40.3581 49.7878 50.5134 39.6325 50.5134 27.1053C50.5134 14.5781 40.3581 4.42285 27.8309 4.42285C15.3037 4.42285 5.14844 14.5781 5.14844 27.1053C5.14844 39.6325 15.3037 49.7878 27.8309 49.7878Z" fill="#171819"/>
<circle cx="72.8461" cy="14.7573" r="12.4272" fill="#171819"/>
<path d="M76.677 2.93631C70.1721 0.827806 63.1422 4.39391 61.0251 10.9256C58.9167 17.4306 62.4828 24.4604 69.0145 26.5774C75.5463 28.6944 82.5578 25.0934 84.6667 18.5881C86.7757 12.0828 83.1823 5.04473 76.677 2.93631ZM74.7143 8.99205C75.4424 9.22807 76.084 9.67501 76.5577 10.2762C77.0315 10.8774 77.316 11.6057 77.3752 12.3688C77.4344 13.132 77.2657 13.8955 76.8903 14.5625C76.515 15.2296 75.95 15.7702 75.267 16.1157C74.584 16.4612 73.8138 16.5961 73.054 16.5033C72.2943 16.4104 71.5792 16.094 70.9995 15.5942C70.4199 15.0944 70.0017 14.4337 69.798 13.6958C69.5944 12.958 69.6144 12.1763 69.8557 11.4499C70.5071 9.44019 72.7042 8.34065 74.7143 8.99205ZM69.8031 24.1446C67.6419 23.4476 65.7903 22.0211 64.5652 20.1091C66.8576 18.8066 69.2545 18.4438 71.423 19.1466C73.5915 19.8495 75.3548 21.5314 76.4123 23.9489C74.2986 24.7788 71.9621 24.8479 69.8031 24.1446Z" fill="#777991"/>
<circle cx="7.37864" cy="7.37864" r="7.37864" transform="matrix(-1 0 0 1 32.458 65.2422)" fill="#171819"/>
<path d="M22.8048 65.6021C26.6671 64.3502 30.8411 66.4676 32.0981 70.3458C33.35 74.2081 31.2326 78.3821 27.3544 79.639C23.4761 80.896 19.313 78.7579 18.0609 74.8954C16.8087 71.0329 18.9423 66.854 22.8048 65.6021ZM23.9702 69.1977C23.5378 69.3379 23.1569 69.6032 22.8756 69.9602C22.5943 70.3172 22.4254 70.7496 22.3902 71.2027C22.3551 71.6558 22.4553 72.1091 22.6781 72.5052C22.901 72.9013 23.2364 73.2223 23.642 73.4274C24.0475 73.6326 24.5048 73.7126 24.9559 73.6575C25.407 73.6024 25.8316 73.4145 26.1758 73.1178C26.52 72.821 26.7683 72.4287 26.8892 71.9906C27.0101 71.5525 26.9982 71.0884 26.8549 70.6571C26.4682 69.4638 25.1636 68.811 23.9702 69.1977ZM26.8862 78.1945C28.1694 77.7807 29.2688 76.9337 29.9962 75.7985C28.6351 75.0251 27.2119 74.8097 25.9244 75.227C24.6368 75.6443 23.5899 76.643 22.962 78.0784C24.217 78.5711 25.6042 78.6122 26.8862 78.1945Z" fill="#777991"/>
</svg>
