<svg width="24" height="24" viewBox="0 0 24 24" fill="none" xmlns="http://www.w3.org/2000/svg">
<path d="M8.14799 14.3702C8.49367 15.0616 9.74799 16.4443 11.9998 16.4443C14.2517 16.4443 15.506 15.0616 15.8517 14.3702M21.3332 11.9998C21.3332 17.1545 17.1545 21.3332 11.9998 21.3332C6.84518 21.3332 2.6665 17.1545 2.6665 11.9998C2.6665 6.84518 6.84518 2.6665 11.9998 2.6665C17.1545 2.6665 21.3332 6.84518 21.3332 11.9998ZM15.5554 10.3702C15.5554 10.7793 15.3564 11.1109 15.1109 11.1109C14.8655 11.1109 14.6665 10.7793 14.6665 10.3702C14.6665 9.96111 14.8655 9.62947 15.1109 9.62947C15.3564 9.62947 15.5554 9.96111 15.5554 10.3702ZM9.33317 10.3702C9.33317 10.7793 9.13419 11.1109 8.88873 11.1109C8.64327 11.1109 8.44428 10.7793 8.44428 10.3702C8.44428 9.96111 8.64327 9.62947 8.88873 9.62947C9.13419 9.62947 9.33317 9.96111 9.33317 10.3702Z" stroke="white" stroke-opacity="0.6" stroke-width="1.5" stroke-linecap="round"/>
</svg>
