<svg width="14" height="16" viewBox="0 0 14 16" fill="none" xmlns="http://www.w3.org/2000/svg">
<path d="M13.3584 4.59523C13.2555 4.393 13.0804 4.2371 12.8676 4.15826C12.6361 4.089 12.3865 4.11336 12.1727 4.22622C11.9589 4.33909 11.7977 4.53117 11.7242 4.76138L10.6477 8.08559C10.6089 8.21016 10.4841 8.28704 10.3554 8.26585C10.2865 8.25059 10.2271 8.20712 10.1921 8.14573C10.1573 8.08441 10.1499 8.01124 10.1719 7.94406L11.8683 2.70597C11.9397 2.47996 11.919 2.23472 11.8112 2.02363C11.7101 1.82047 11.5337 1.66477 11.3195 1.58946C11.088 1.5202 10.8384 1.54476 10.6246 1.65742C10.4108 1.77029 10.2496 1.96237 10.1761 2.19278L8.69374 6.76996L8.69381 6.76976C8.65501 6.89433 8.53017 6.97141 8.40151 6.95003C8.33292 6.9351 8.27412 6.89202 8.23891 6.83123C8.2039 6.7705 8.19605 6.69807 8.21703 6.63123L9.87439 1.51369C9.95058 1.27909 9.92757 1.02338 9.8103 0.806155C9.69316 0.589193 9.4922 0.429528 9.25417 0.364569C9.02241 0.294582 8.77255 0.318607 8.55856 0.431417C8.34448 0.54442 8.18355 0.737026 8.11064 0.967602L6.46246 6.05679C6.42367 6.18136 6.29883 6.25844 6.17016 6.23706C6.10158 6.22212 6.04278 6.17905 6.00777 6.11832C5.97275 6.05759 5.96471 5.9851 5.98569 5.91825L7.30499 1.84455C7.37776 1.62053 7.35969 1.37678 7.25501 1.16563C7.15026 0.954669 6.96719 0.792862 6.74478 0.7151C6.51309 0.644914 6.26323 0.668938 6.04917 0.781948C5.83516 0.894752 5.67423 1.08736 5.60125 1.31813L3.52882 7.71736L3.04577 6.28083C2.95017 6.00691 2.74979 5.78217 2.48876 5.65552C2.22773 5.52887 1.9271 5.51089 1.65267 5.60522C1.39112 5.69733 1.17403 5.88498 1.04533 6.13058C0.91656 6.37638 0.885506 6.66152 0.958493 6.92904L1.71148 9.93237C1.77926 10.1955 1.82679 10.4634 1.85345 10.7337L1.86065 10.8088C2.30459 15.1184 7.84103 16.5953 10.3708 13.0781C10.9918 12.2158 11.4744 11.262 11.8016 10.2511L13.4127 5.27642C13.4846 5.05101 13.465 4.80635 13.3584 4.59499L13.3584 4.59523Z" fill="white" fill-opacity="0.87"/>
</svg>
