<svg width="18" height="18" viewBox="0 0 18 18" fill="none" xmlns="http://www.w3.org/2000/svg">
<path d="M16.5 6.74995L12 11.2499M12 6.74995L16.5 11.2499M7.22574 4.02421L4.85147 6.39847C4.72176 6.52819 4.6569 6.59304 4.58121 6.63943C4.51411 6.68055 4.44095 6.71085 4.36442 6.72922C4.27811 6.74995 4.18639 6.74995 4.00294 6.74995H2.7C2.27996 6.74995 2.06994 6.74995 1.90951 6.83169C1.76839 6.9036 1.65365 7.01833 1.58175 7.15945C1.5 7.31989 1.5 7.52991 1.5 7.94995V10.0499C1.5 10.47 1.5 10.68 1.58175 10.8404C1.65365 10.9816 1.76839 11.0963 1.90951 11.1682C2.06994 11.2499 2.27996 11.2499 2.7 11.2499H4.00294C4.18639 11.2499 4.27811 11.2499 4.36442 11.2707C4.44095 11.289 4.51411 11.3193 4.58121 11.3605C4.6569 11.4068 4.72176 11.4717 4.85147 11.6014L7.22574 13.9757C7.54702 14.297 7.70766 14.4576 7.84558 14.4685C7.96525 14.4779 8.08219 14.4294 8.16015 14.3382C8.25 14.233 8.25 14.0058 8.25 13.5514V4.44847C8.25 3.99411 8.25 3.76693 8.16015 3.66173C8.08219 3.57045 7.96525 3.52201 7.84558 3.53143C7.70766 3.54229 7.54702 3.70293 7.22574 4.02421Z" stroke="black" stroke-opacity="0.87" stroke-width="1.5" stroke-linecap="round" stroke-linejoin="round"/>
</svg>
