<svg width="22" height="22" viewBox="0 0 22 22" fill="none" xmlns="http://www.w3.org/2000/svg">
<g clip-path="url(#clip0_6113_20071)">
<path d="M11 0.655151C9.00151 0.655151 7.37555 2.28111 7.37555 4.2796V11.4029C7.37555 13.4012 9.00151 15.0271 11 15.0271C12.9985 15.0271 14.6244 13.4125 14.6244 11.4278V4.2796C14.6244 2.28111 12.9985 0.655151 11 0.655151ZM13.114 11.4276C13.114 12.5794 12.1656 13.5167 11 13.5167C9.83439 13.5167 8.88573 12.5686 8.88573 11.4027V4.2796C8.88573 3.11375 9.83414 2.16533 11 2.16533C12.1659 2.16533 13.1143 3.11375 13.114 4.2796V11.4276Z" fill="white"/>
<path d="M11.7551 17.1918H10.2449V20.5897H11.7551V17.1918Z" fill="white"/>
<path d="M12.9884 19.8346H9.01156C8.5945 19.8346 8.25647 20.1726 8.25647 20.5897C8.25647 21.0068 8.5945 21.3448 9.01156 21.3448H12.9884C13.4055 21.3448 13.7435 21.0068 13.7435 20.5897C13.7435 20.1726 13.4055 19.8346 12.9884 19.8346Z" fill="white"/>
<path d="M16.7136 10.1442C16.2965 10.1442 15.9585 10.4822 15.9585 10.8993V11.5033C15.9585 14.2373 13.734 16.4618 11 16.4618C8.26579 16.4618 6.04149 14.2373 6.04149 11.5033V10.8993C6.04149 10.4822 5.70347 10.1442 5.2864 10.1442C4.86934 10.1442 4.53131 10.4822 4.53131 10.8993V11.5033C4.53131 15.0702 7.43316 17.972 11 17.972C14.5668 17.972 17.4686 15.0702 17.4686 11.5033V10.8993C17.4686 10.4822 17.1306 10.1442 16.7136 10.1442Z" fill="white"/>
</g>
<defs>
<clipPath id="clip0_6113_20071">
<rect width="20.6897" height="20.6897" fill="white" transform="translate(0.655151 0.655151)"/>
</clipPath>
</defs>
</svg>
