<svg width="230" height="67" viewBox="0 0 230 67" fill="none" xmlns="http://www.w3.org/2000/svg">
<path d="M61.7524 16.835C66.6124 16.835 70.4824 18.335 73.3624 21.335C76.3024 24.275 77.7724 28.685 77.7724 34.565V65.795H61.7524V38.255C61.7524 35.195 61.1824 32.975 60.0424 31.595C58.9024 30.215 57.2224 29.525 55.0024 29.525C52.7824 29.525 50.9224 30.425 49.4224 32.225C47.9824 33.965 47.2624 36.575 47.2624 40.055V65.795H31.3324V38.255C31.3324 35.195 30.7624 32.975 29.6224 31.595C28.4824 30.215 26.8024 29.525 24.5824 29.525C22.3624 29.525 20.5024 30.425 19.0024 32.225C17.5624 33.965 16.8424 36.575 16.8424 40.055V65.795H0.822388V18.005H16.2124V24.485H16.5724C20.2324 19.385 25.1524 16.835 31.3324 16.835C34.5724 16.835 37.3924 17.525 39.7924 18.905C42.2524 20.225 44.1124 22.235 45.3724 24.935C47.5924 22.475 49.9324 20.525 52.3924 19.085C54.8524 17.585 57.9724 16.835 61.7524 16.835Z" fill="white"/>
<path d="M120.753 59.315C117.093 64.415 111.993 66.965 105.453 66.965C100.353 66.965 96.273 65.495 93.213 62.555C90.213 59.555 88.713 55.115 88.713 49.235V18.005H104.733V45.545C104.733 48.665 105.333 50.915 106.533 52.295C107.793 53.615 109.623 54.275 112.023 54.275C114.423 54.275 116.433 53.405 118.053 51.665C119.673 49.865 120.483 47.225 120.483 43.745V18.005H136.503V65.795H121.113V59.315H120.753Z" fill="white"/>
<path d="M163.532 0.634995V65.795H147.512V0.634995H163.532Z" fill="white"/>
<path d="M199.763 54.545C201.503 54.545 202.973 54.425 204.173 54.185V65.795C203.093 66.095 201.623 66.365 199.763 66.605C197.963 66.845 196.133 66.965 194.273 66.965C190.493 66.965 187.493 66.575 185.273 65.795C183.053 65.075 181.403 63.785 180.323 61.925C179.303 60.005 178.793 57.305 178.793 53.825V27.995H171.503V18.005H178.793V4.86499H194.813V18.005H204.353V27.995H194.813V49.955C194.813 51.815 195.173 53.045 195.893 53.645C196.673 54.245 197.963 54.545 199.763 54.545Z" fill="white"/>
<path d="M229.088 18.005V65.795H213.158V18.005H229.088ZM229.178 0.634995V12.245H213.158V0.634995H229.178Z" fill="white"/>
</svg>
