<svg width="228" height="25" viewBox="0 0 228 25" fill="none" xmlns="http://www.w3.org/2000/svg">
<path d="M8.83039 19.815L4.04639 4.553V19.815H0.822388V0.964996H5.94439L10.5204 15.993L15.0704 0.964996H20.1924V19.815H16.9684V4.553L12.1844 19.815H8.83039Z" fill="white"/>
<path d="M32.7146 17.891C31.9086 19.347 30.4786 20.153 28.5806 20.153C25.2526 20.153 23.9006 17.969 23.9006 14.641V5.827H26.9946V13.887C26.9946 15.785 27.2546 17.631 29.5686 17.631C31.8826 17.631 32.7146 15.811 32.7146 13.289V5.827H35.8086V19.815H32.7146V17.891Z" fill="white"/>
<path d="M42.6456 19.815H39.5516V0.964996H42.6456V19.815Z" fill="white"/>
<path d="M46.8298 2.135H49.9238V5.827H52.7318V8.063H49.9238V15.681C49.9238 17.111 50.2618 17.449 51.5878 17.449H52.7058V19.815H50.4178C47.4278 19.815 46.8298 19.009 46.8298 16.149V8.063H44.7498V5.827H46.8298V2.135Z" fill="white"/>
<path d="M58.5777 0.964996V4.085H55.4837V0.964996H58.5777ZM58.5777 5.827V19.815H55.4837V5.827H58.5777Z" fill="white"/>
<path d="M65.4139 5.827V7.699C66.2459 6.321 67.7019 5.515 69.5739 5.515C72.9799 5.515 75.5799 8.349 75.5799 12.821C75.5799 17.319 72.9799 20.153 69.5739 20.153C67.7019 20.153 66.2459 19.347 65.4139 17.969V24.365H62.3199V5.827H65.4139ZM68.8979 17.631C71.0559 17.631 72.3559 15.785 72.3559 12.821C72.3559 9.883 71.0559 8.037 68.8979 8.037C66.8699 8.037 65.2839 9.597 65.2839 12.821C65.2839 16.045 66.8699 17.631 68.8979 17.631Z" fill="white"/>
<path d="M81.4669 19.815H78.3729V0.964996H81.4669V19.815Z" fill="white"/>
<path d="M84.663 24.365V21.999H85.8331C87.1851 21.999 87.757 21.895 88.3811 20.075L88.537 19.737L83.467 5.827H86.8471L90.0191 15.863L93.191 5.827H96.3631L91.4491 19.789C90.149 23.403 89.2131 24.365 86.0671 24.365H84.663Z" fill="white"/>
<path d="M106.518 0.964996L111.198 9.389L116.008 0.964996H119.726L112.784 12.535V19.815H109.482V12.483L102.748 0.964996H106.518Z" fill="white"/>
<path d="M132.095 12.847C132.095 17.891 128.611 20.153 125.205 20.153C121.799 20.153 118.315 17.891 118.315 12.847C118.315 7.803 121.799 5.515 125.205 5.515C128.611 5.515 132.095 7.803 132.095 12.847ZM125.205 17.631C127.155 17.631 128.897 16.071 128.897 12.847C128.897 9.623 127.155 8.037 125.205 8.037C123.255 8.037 121.513 9.623 121.513 12.847C121.513 16.071 123.255 17.631 125.205 17.631Z" fill="white"/>
<path d="M143.529 17.891C142.723 19.347 141.293 20.153 139.395 20.153C136.067 20.153 134.715 17.969 134.715 14.641V5.827H137.809V13.887C137.809 15.785 138.069 17.631 140.383 17.631C142.697 17.631 143.529 15.811 143.529 13.289V5.827H146.623V19.815H143.529V17.891Z" fill="white"/>
<path d="M158.01 8.973C157.49 8.921 156.996 8.895 156.528 8.895C154.578 8.895 153.46 9.675 153.46 12.483V19.815H150.366V5.827H153.408V8.323C154.162 6.763 155.514 5.827 157.204 5.801C157.438 5.801 157.776 5.827 158.01 5.853V8.973Z" fill="white"/>
<path d="M169.934 17.033H179.424V19.815H166.632V0.964996H169.934V17.033Z" fill="white"/>
<path d="M184.531 0.964996V4.085H181.437V0.964996H184.531ZM184.531 5.827V19.815H181.437V5.827H184.531Z" fill="white"/>
<path d="M193.162 15.811L196.36 5.827H199.584L194.54 19.815H191.628L186.532 5.827H189.938L193.162 15.811Z" fill="white"/>
<path d="M203.541 13.705C203.749 16.305 205.569 17.579 207.337 17.579C208.949 17.579 210.223 16.929 210.769 15.629H213.811C213.161 17.865 211.081 20.153 207.467 20.153C202.969 20.153 200.395 16.721 200.395 12.717C200.395 8.505 203.281 5.515 207.259 5.515C211.549 5.515 214.227 8.999 213.967 13.705H203.541ZM203.541 11.443H210.821C210.743 9.259 209.079 7.933 207.259 7.933C205.803 7.933 203.801 8.791 203.541 11.443Z" fill="white"/>
<path d="M224.807 9.649C224.469 8.375 223.299 7.881 221.739 7.881C220.387 7.881 219.139 8.479 219.139 9.415C219.139 10.351 219.815 10.845 221.011 11.079L222.987 11.469C225.821 12.015 227.979 12.899 227.979 15.629C227.979 18.541 225.223 20.153 222.051 20.153C218.619 20.153 216.331 18.203 215.993 15.551H219.009C219.295 16.981 220.335 17.813 222.155 17.813C223.767 17.813 224.963 17.137 224.963 15.993C224.963 14.849 223.923 14.329 222.545 14.069L220.439 13.653C218.073 13.185 216.227 12.119 216.227 9.571C216.227 7.101 218.879 5.515 221.921 5.515C224.651 5.515 227.147 6.841 227.719 9.649H224.807Z" fill="white"/>
</svg>
