<svg width="241" height="70" viewBox="0 0 241 70" fill="none" xmlns="http://www.w3.org/2000/svg">
<path d="M64.3039 17.0963C69.433 17.0963 73.5173 18.6793 76.5567 21.8453C79.6595 24.948 81.2109 29.602 81.2109 35.8073V68.7653H64.3039V39.7015C64.3039 36.4722 63.7023 34.1294 62.4992 32.673C61.2961 31.2166 59.523 30.4885 57.1801 30.4885C54.8372 30.4885 52.8742 31.4383 51.2911 33.3379C49.7714 35.1741 49.0115 37.9285 49.0115 41.6011V68.7653H32.1994V39.7015C32.1994 36.4722 31.5979 34.1294 30.3947 32.673C29.1916 31.2166 27.4186 30.4885 25.0757 30.4885C22.7327 30.4885 20.7697 31.4383 19.1867 33.3379C17.6669 35.1741 16.9071 37.9285 16.9071 41.6011V68.7653H0V18.3311H16.2422V25.1696H16.6221C20.4848 19.7874 25.6772 17.0963 32.1994 17.0963C35.6188 17.0963 38.595 17.8245 41.1279 19.2809C43.7241 20.6739 45.6871 22.7951 47.0169 25.6445C49.3598 23.0484 51.8294 20.9905 54.4256 19.4708C57.0218 17.8878 60.3146 17.0963 64.3039 17.0963Z" fill="white" fill-opacity="0.05"/>
<path d="M126.572 61.9267C122.709 67.3089 117.326 70 110.424 70C105.042 70 100.736 68.4487 97.5066 65.346C94.3404 62.18 92.7574 57.4944 92.7574 51.289V18.3311H109.664V47.3948C109.664 50.6875 110.298 53.062 111.564 54.5183C112.894 55.9114 114.825 56.6079 117.358 56.6079C119.891 56.6079 122.012 55.6897 123.722 53.8535C125.432 51.9539 126.287 49.1678 126.287 45.4953V18.3311H143.194V68.7653H126.951V61.9267H126.572Z" fill="white" fill-opacity="0.05"/>
<path d="M171.719 0V68.7653H154.812V0H171.719Z" fill="white" fill-opacity="0.05"/>
<path d="M209.957 56.8928C211.793 56.8928 213.344 56.7662 214.611 56.5129V68.7653C213.471 69.0819 211.92 69.3668 209.957 69.6201C208.057 69.8734 206.126 70 204.163 70C200.173 70 197.007 69.5884 194.664 68.7653C192.321 68.0054 190.58 66.6441 189.44 64.6811C188.364 62.6549 187.826 59.8055 187.826 56.133V28.8738H180.132V18.3311H187.826V4.46404H204.733V18.3311H214.801V28.8738H204.733V52.0489C204.733 54.0118 205.113 55.3098 205.872 55.943C206.696 56.5762 208.057 56.8928 209.957 56.8928Z" fill="white" fill-opacity="0.05"/>
<path d="M240.905 18.3311V68.7653H224.093V18.3311H240.905ZM241 0V12.2524H224.093V0H241Z" fill="white" fill-opacity="0.05"/>
</svg>
